{
	"patcher" : 	{
		"fileversion" : 1,
		"appversion" : 		{
			"major" : 8,
			"minor" : 5,
			"revision" : 4,
			"architecture" : "x64",
			"modernui" : 1
		}
,
		"classnamespace" : "box",
		"rect" : [ 59.0, 87.0, 676.0, 271.0 ],
		"bglocked" : 0,
		"openinpresentation" : 1,
		"default_fontsize" : 12.0,
		"default_fontface" : 0,
		"default_fontname" : "Arial",
		"gridonopen" : 1,
		"gridsize" : [ 15.0, 15.0 ],
		"gridsnaponopen" : 1,
		"objectsnaponopen" : 1,
		"statusbarvisible" : 2,
		"toolbarvisible" : 1,
		"lefttoolbarpinned" : 0,
		"toptoolbarpinned" : 0,
		"righttoolbarpinned" : 0,
		"bottomtoolbarpinned" : 0,
		"toolbars_unpinned_last_save" : 0,
		"tallnewobj" : 0,
		"boxanimatetime" : 200,
		"enablehscroll" : 1,
		"enablevscroll" : 1,
		"devicewidth" : 0.0,
		"description" : "",
		"digest" : "",
		"tags" : "",
		"style" : "",
		"subpatcher_template" : "",
		"assistshowspatchername" : 0,
		"boxes" : [ 			{
				"box" : 				{
					"id" : "obj-52",
					"maxclass" : "message",
					"numinlets" : 2,
					"numoutlets" : 1,
					"outlettype" : [ "" ],
					"patching_rect" : [ 144.833333333333343, 578.0, 41.0, 22.0 ],
					"text" : "set $1"
				}

			}
, 			{
				"box" : 				{
					"bgcolor" : [ 0.2, 0.2, 0.2, 0.08 ],
					"id" : "obj-19",
					"maxclass" : "textbutton",
					"numinlets" : 1,
					"numoutlets" : 3,
					"outlettype" : [ "", "", "int" ],
					"parameter_enable" : 0,
					"patching_rect" : [ 225.833333333333343, 756.0, 100.0, 20.0 ],
					"presentation" : 1,
					"presentation_rect" : [ 334.999999999999943, 218.0, 330.000000000000057, 43.0 ],
					"rounded" : 10.0,
					"text" : "more...",
					"textcolor" : [ 0.968627450980392, 0.968627450980392, 0.968627450980392, 1.0 ],
					"texton" : "more...",
					"textoncolor" : [ 0.2, 0.2, 0.2, 1.0 ]
				}

			}
, 			{
				"box" : 				{
					"id" : "obj-20",
					"maxclass" : "newobj",
					"numinlets" : 2,
					"numoutlets" : 2,
					"outlettype" : [ "", "" ],
					"patching_rect" : [ 225.833333333333343, 778.0, 38.0, 22.0 ],
					"text" : "zl.reg"
				}

			}
, 			{
				"box" : 				{
					"id" : "obj-23",
					"linecount" : 2,
					"maxclass" : "message",
					"numinlets" : 2,
					"numoutlets" : 1,
					"outlettype" : [ "" ],
					"patching_rect" : [ 225.833333333333343, 807.0, 129.0, 35.0 ],
					"text" : ";\rmax launchbrowser $1"
				}

			}
, 			{
				"box" : 				{
					"id" : "obj-17",
					"maxclass" : "message",
					"numinlets" : 2,
					"numoutlets" : 1,
					"outlettype" : [ "" ],
					"patching_rect" : [ 191.666666666666657, 663.0, 41.0, 22.0 ],
					"text" : "set $1"
				}

			}
, 			{
				"box" : 				{
					"bgcolor" : [ 0.819607843137255, 0.819607843137255, 0.819607843137255, 1.0 ],
					"border" : 1.0,
					"bordercolor" : [ 0.349019607843137, 0.349019607843137, 0.349019607843137, 1.0 ],
					"fontsize" : 16.0,
					"id" : "obj-18",
					"linecount" : 3,
					"maxclass" : "textedit",
					"nosymquotes" : 1,
					"numinlets" : 1,
					"numoutlets" : 4,
					"outlettype" : [ "", "int", "", "" ],
					"parameter_enable" : 0,
					"patching_rect" : [ 191.666666666666657, 687.0, 104.0, 50.0 ],
					"presentation" : 1,
					"presentation_rect" : [ 334.999999999999943, 10.0, 330.000000000000057, 24.0 ],
					"readonly" : 1,
					"rounded" : 0.0,
					"text" : "(make-object 'harmonic-oscillator)",
					"textcolor" : [ 0.2, 0.2, 0.2, 1.0 ]
				}

			}
, 			{
				"box" : 				{
					"id" : "obj-14",
					"maxclass" : "newobj",
					"numinlets" : 4,
					"numoutlets" : 4,
					"outlettype" : [ "", "", "", "" ],
					"patching_rect" : [ 144.833333333333343, 536.0, 169.0, 22.0 ],
					"text" : "route description modalysp url"
				}

			}
, 			{
				"box" : 				{
					"id" : "obj-8",
					"maxclass" : "newobj",
					"numinlets" : 1,
					"numoutlets" : 1,
					"outlettype" : [ "" ],
					"patching_rect" : [ 144.833333333333343, 512.0, 47.0, 22.0 ],
					"text" : "dict.iter"
				}

			}
, 			{
				"box" : 				{
					"id" : "obj-2",
					"maxclass" : "newobj",
					"numinlets" : 1,
					"numoutlets" : 1,
					"outlettype" : [ "" ],
					"patching_rect" : [ 329.666666666666856, 59.0, 89.0, 22.0 ],
					"text" : "loadmess clear"
				}

			}
, 			{
				"box" : 				{
					"id" : "obj-11",
					"maxclass" : "newobj",
					"numinlets" : 2,
					"numoutlets" : 2,
					"outlettype" : [ "", "" ],
					"patching_rect" : [ 144.833333333333343, 481.0, 55.0, 22.0 ],
					"text" : "zl.slice 1"
				}

			}
, 			{
				"box" : 				{
					"id" : "obj-3",
					"maxclass" : "message",
					"numinlets" : 2,
					"numoutlets" : 1,
					"outlettype" : [ "" ],
					"patching_rect" : [ 211.26666666666668, 426.0, 42.0, 22.0 ],
					"text" : "get $1"
				}

			}
, 			{
				"box" : 				{
					"id" : "obj-4",
					"maxclass" : "message",
					"numinlets" : 2,
					"numoutlets" : 1,
					"outlettype" : [ "" ],
					"patching_rect" : [ 167.666666666666657, 273.0, 65.0, 22.0 ],
					"text" : "append $1"
				}

			}
, 			{
				"box" : 				{
					"id" : "obj-5",
					"maxclass" : "newobj",
					"numinlets" : 1,
					"numoutlets" : 1,
					"outlettype" : [ "" ],
					"patching_rect" : [ 167.666666666666657, 249.0, 25.0, 22.0 ],
					"text" : "iter"
				}

			}
, 			{
				"box" : 				{
					"id" : "obj-6",
					"maxclass" : "newobj",
					"numinlets" : 1,
					"numoutlets" : 2,
					"outlettype" : [ "", "clear" ],
					"patching_rect" : [ 167.666666666666657, 225.0, 47.0, 22.0 ],
					"text" : "t l clear"
				}

			}
, 			{
				"box" : 				{
					"fontface" : 0,
					"fontname" : "Arial",
					"fontsize" : 12.0,
					"id" : "obj-7",
					"items" : [ "mlys.rect-membrane.mxo", ",", "mlys.closed-closed-tube.mxo", ",", "mlys.melt-hybrid.mxo", ",", "mlys.cello-bridge.mxo", ",", "mlys.open-open-tube.mxo", ",", "mlys.clamped-circ-plate.mxo", ",", "mlys.circ-membrane.mxo", ",", "mlys.tri-hybrid.mxo", ",", "mlys.single-point.mxo", ",", "mlys.jet.mxo", ",", "mlys.bi-two-mass.mxo", ",", "mlys.mono-two-mass.mxo", ",", "mlys.free-circ-plate.mxo", ",", "mlys.mix-hybrid.mxo", ",", "mlys.mono-string.mxo", ",", "mlys.rect-plate.mxo", ",", "mlys.violin-bridge.mxo", ",", "mlys.bi-string.mxo", ",", "mlys.closed-open-tube.mxo", ",", "mlys.read-from-file.mxo", ",", "mlys.harmonic-oscillator.mxo" ],
					"maxclass" : "chooser",
					"numinlets" : 1,
					"numoutlets" : 6,
					"outlettype" : [ "", "", "", "", "", "" ],
					"parameter_enable" : 0,
					"patching_rect" : [ 167.666666666666657, 316.0, 237.000000000000171, 108.0 ],
					"presentation" : 1,
					"presentation_rect" : [ 112.0, 10.0, 220.999999999999943, 251.0 ]
				}

			}
, 			{
				"box" : 				{
					"id" : "obj-1",
					"maxclass" : "newobj",
					"numinlets" : 1,
					"numoutlets" : 2,
					"outlettype" : [ "", "" ],
					"patching_rect" : [ 134.333333333333343, 157.0, 63.0, 22.0 ],
					"text" : "t getkeys l"
				}

			}
, 			{
				"box" : 				{
					"id" : "obj-35",
					"maxclass" : "newobj",
					"numinlets" : 1,
					"numoutlets" : 1,
					"outlettype" : [ "" ],
					"patching_rect" : [ 85.0, 48.0, 105.0, 22.0 ],
					"text" : "loadmess getkeys"
				}

			}
, 			{
				"box" : 				{
					"id" : "obj-33",
					"maxclass" : "newobj",
					"numinlets" : 2,
					"numoutlets" : 4,
					"outlettype" : [ "dictionary", "", "", "" ],
					"patching_rect" : [ 134.333333333333343, 193.0, 50.5, 22.0 ],
					"saved_object_attributes" : 					{
						"embed" : 0,
						"parameter_enable" : 0,
						"parameter_mappable" : 0
					}
,
					"text" : "dict"
				}

			}
, 			{
				"box" : 				{
					"id" : "obj-32",
					"maxclass" : "newobj",
					"numinlets" : 2,
					"numoutlets" : 2,
					"outlettype" : [ "", "" ],
					"patching_rect" : [ 134.333333333333343, 129.0, 55.0, 22.0 ],
					"text" : "zl.slice 1"
				}

			}
, 			{
				"box" : 				{
					"id" : "obj-29",
					"maxclass" : "message",
					"numinlets" : 2,
					"numoutlets" : 1,
					"outlettype" : [ "" ],
					"patching_rect" : [ 477.266666666666652, 426.0, 42.0, 22.0 ],
					"text" : "get $1"
				}

			}
, 			{
				"box" : 				{
					"id" : "obj-27",
					"maxclass" : "message",
					"numinlets" : 2,
					"numoutlets" : 1,
					"outlettype" : [ "" ],
					"patching_rect" : [ 433.666666666666742, 273.0, 65.0, 22.0 ],
					"text" : "append $1"
				}

			}
, 			{
				"box" : 				{
					"id" : "obj-25",
					"maxclass" : "newobj",
					"numinlets" : 1,
					"numoutlets" : 1,
					"outlettype" : [ "" ],
					"patching_rect" : [ 433.666666666666742, 249.0, 25.0, 22.0 ],
					"text" : "iter"
				}

			}
, 			{
				"box" : 				{
					"id" : "obj-22",
					"maxclass" : "newobj",
					"numinlets" : 1,
					"numoutlets" : 2,
					"outlettype" : [ "", "clear" ],
					"patching_rect" : [ 433.666666666666742, 225.0, 47.0, 22.0 ],
					"text" : "t l clear"
				}

			}
, 			{
				"box" : 				{
					"fontface" : 0,
					"fontname" : "Arial",
					"fontsize" : 12.0,
					"id" : "obj-21",
					"items" : [ "objects", ",", "connections", ",", "input-output", ",", "controllers", ",", "kernel" ],
					"maxclass" : "chooser",
					"numinlets" : 1,
					"numoutlets" : 6,
					"outlettype" : [ "", "", "", "", "", "" ],
					"parameter_enable" : 0,
					"patching_rect" : [ 433.666666666666742, 316.0, 237.000000000000171, 108.0 ],
					"presentation" : 1,
					"presentation_rect" : [ 10.0, 10.0, 100.0, 251.0 ]
				}

			}
, 			{
				"box" : 				{
					"id" : "obj-9",
					"maxclass" : "newobj",
					"numinlets" : 2,
					"numoutlets" : 4,
					"outlettype" : [ "dictionary", "", "", "" ],
					"patching_rect" : [ 85.0, 91.0, 167.0, 22.0 ],
					"saved_object_attributes" : 					{
						"embed" : 0,
						"parameter_enable" : 0,
						"parameter_mappable" : 0
					}
,
					"text" : "dict data mlys_object_list.json"
				}

			}
, 			{
				"box" : 				{
					"bgcolor" : [ 0.819607843137255, 0.819607843137255, 0.819607843137255, 1.0 ],
					"border" : 1.0,
					"bordercolor" : [ 0.349019607843137, 0.349019607843137, 0.349019607843137, 1.0 ],
					"id" : "obj-24",
					"linecount" : 19,
					"maxclass" : "textedit",
					"nosymquotes" : 1,
					"numinlets" : 1,
					"numoutlets" : 4,
					"outlettype" : [ "", "int", "", "" ],
					"parameter_enable" : 0,
					"patching_rect" : [ 144.833333333333343, 602.0, 100.0, 50.0 ],
					"presentation" : 1,
					"presentation_linecount" : 5,
					"presentation_rect" : [ 334.999999999999943, 36.0, 330.000000000000057, 225.0 ],
					"readonly" : 1,
					"rounded" : 0.0,
					"text" : "A simple and inexpensive mass and spring model that can serve as lips, among other things. The harmonic oscillator models a mass attached to a spring of a given stiffness, fixed at one end. The frequency of resonance of the object is given by the formula 1/(2 pi) sqrt(stiffness / mass).",
					"textcolor" : [ 0.2, 0.2, 0.2, 1.0 ]
				}

			}
 ],
		"lines" : [ 			{
				"patchline" : 				{
					"destination" : [ "obj-33", 0 ],
					"midpoints" : [ 187.833333333333343, 183.0, 143.833333333333343, 183.0 ],
					"source" : [ "obj-1", 1 ]
				}

			}
, 			{
				"patchline" : 				{
					"destination" : [ "obj-33", 0 ],
					"source" : [ "obj-1", 0 ]
				}

			}
, 			{
				"patchline" : 				{
					"destination" : [ "obj-8", 0 ],
					"source" : [ "obj-11", 1 ]
				}

			}
, 			{
				"patchline" : 				{
					"destination" : [ "obj-17", 0 ],
					"source" : [ "obj-14", 1 ]
				}

			}
, 			{
				"patchline" : 				{
					"destination" : [ "obj-20", 1 ],
					"source" : [ "obj-14", 2 ]
				}

			}
, 			{
				"patchline" : 				{
					"destination" : [ "obj-52", 0 ],
					"source" : [ "obj-14", 0 ]
				}

			}
, 			{
				"patchline" : 				{
					"destination" : [ "obj-18", 0 ],
					"source" : [ "obj-17", 0 ]
				}

			}
, 			{
				"patchline" : 				{
					"destination" : [ "obj-20", 0 ],
					"source" : [ "obj-19", 0 ]
				}

			}
, 			{
				"patchline" : 				{
					"color" : [ 0.701961, 0.701961, 0.701961, 0.0 ],
					"destination" : [ "obj-18", 0 ],
					"order" : 0,
					"source" : [ "obj-2", 0 ]
				}

			}
, 			{
				"patchline" : 				{
					"color" : [ 0.701961, 0.701961, 0.701961, 0.0 ],
					"destination" : [ "obj-24", 0 ],
					"order" : 2,
					"source" : [ "obj-2", 0 ]
				}

			}
, 			{
				"patchline" : 				{
					"color" : [ 0.701961, 0.701961, 0.701961, 0.0 ],
					"destination" : [ "obj-33", 0 ],
					"order" : 3,
					"source" : [ "obj-2", 0 ]
				}

			}
, 			{
				"patchline" : 				{
					"color" : [ 0.701961, 0.701961, 0.701961, 0.0 ],
					"destination" : [ "obj-7", 0 ],
					"order" : 1,
					"source" : [ "obj-2", 0 ]
				}

			}
, 			{
				"patchline" : 				{
					"destination" : [ "obj-23", 0 ],
					"source" : [ "obj-20", 0 ]
				}

			}
, 			{
				"patchline" : 				{
					"destination" : [ "obj-29", 0 ],
					"source" : [ "obj-21", 1 ]
				}

			}
, 			{
				"patchline" : 				{
					"destination" : [ "obj-21", 0 ],
					"midpoints" : [ 471.166666666666742, 303.5, 443.166666666666742, 303.5 ],
					"source" : [ "obj-22", 1 ]
				}

			}
, 			{
				"patchline" : 				{
					"destination" : [ "obj-25", 0 ],
					"source" : [ "obj-22", 0 ]
				}

			}
, 			{
				"patchline" : 				{
					"destination" : [ "obj-27", 0 ],
					"source" : [ "obj-25", 0 ]
				}

			}
, 			{
				"patchline" : 				{
					"destination" : [ "obj-21", 0 ],
					"source" : [ "obj-27", 0 ]
				}

			}
, 			{
				"patchline" : 				{
					"color" : [ 0.995808124542236, 0.800124049186707, 0.399986743927002, 1.0 ],
					"destination" : [ "obj-9", 0 ],
					"midpoints" : [ 486.766666666666652, 458.0, 68.633333333333326, 458.0, 68.633333333333326, 80.0, 94.5, 80.0 ],
					"source" : [ "obj-29", 0 ]
				}

			}
, 			{
				"patchline" : 				{
					"color" : [ 0.399992048740387, 0.800062298774719, 0.998948574066162, 1.0 ],
					"destination" : [ "obj-33", 0 ],
					"midpoints" : [ 220.76666666666668, 458.0, 68.300000000000011, 458.0, 68.300000000000011, 182.0, 143.833333333333343, 182.0 ],
					"source" : [ "obj-3", 0 ]
				}

			}
, 			{
				"patchline" : 				{
					"destination" : [ "obj-1", 0 ],
					"source" : [ "obj-32", 1 ]
				}

			}
, 			{
				"patchline" : 				{
					"destination" : [ "obj-11", 0 ],
					"source" : [ "obj-33", 1 ]
				}

			}
, 			{
				"patchline" : 				{
					"destination" : [ "obj-6", 0 ],
					"midpoints" : [ 164.833333333333343, 219.5, 177.166666666666657, 219.5 ],
					"source" : [ "obj-33", 2 ]
				}

			}
, 			{
				"patchline" : 				{
					"destination" : [ "obj-9", 0 ],
					"source" : [ "obj-35", 0 ]
				}

			}
, 			{
				"patchline" : 				{
					"destination" : [ "obj-7", 0 ],
					"source" : [ "obj-4", 0 ]
				}

			}
, 			{
				"patchline" : 				{
					"destination" : [ "obj-4", 0 ],
					"source" : [ "obj-5", 0 ]
				}

			}
, 			{
				"patchline" : 				{
					"destination" : [ "obj-24", 0 ],
					"source" : [ "obj-52", 0 ]
				}

			}
, 			{
				"patchline" : 				{
					"destination" : [ "obj-5", 0 ],
					"source" : [ "obj-6", 0 ]
				}

			}
, 			{
				"patchline" : 				{
					"destination" : [ "obj-7", 0 ],
					"midpoints" : [ 205.166666666666657, 304.5, 177.166666666666657, 304.5 ],
					"source" : [ "obj-6", 1 ]
				}

			}
, 			{
				"patchline" : 				{
					"destination" : [ "obj-3", 0 ],
					"source" : [ "obj-7", 1 ]
				}

			}
, 			{
				"patchline" : 				{
					"destination" : [ "obj-14", 0 ],
					"source" : [ "obj-8", 0 ]
				}

			}
, 			{
				"patchline" : 				{
					"destination" : [ "obj-22", 0 ],
					"midpoints" : [ 193.166666666666686, 125.0, 443.166666666666742, 125.0 ],
					"source" : [ "obj-9", 2 ]
				}

			}
, 			{
				"patchline" : 				{
					"destination" : [ "obj-32", 0 ],
					"source" : [ "obj-9", 1 ]
				}

			}
 ],
		"dependency_cache" : [  ],
		"autosave" : 0
	}

}
